<svg id="tired" enable-background="new 0 0 300 300" height="512" viewBox="0 0 300 300" width="512" xmlns="http://www.w3.org/2000/svg"><g><circle cx="167.161" cy="158.058" fill="#edebdc" r="92"/><g><path d="m187.161 66.058h-98.755c-31.99 0-56.259 28.827-50.808 60.349l12.392 71.651h29.171v-22.346l12-12v-12.222c2.016 2.062 3.554 3.509 6.819 4.02 9.399 1.47 17.181-5.775 17.181-15.289v-38.162h38.829c17.673-.001 33.171-18.328 33.171-36.001z" fill="#bf7e68"/><path d="m79.161 202.058h-29.172c-1.945 0-3.609-1.4-3.941-3.318l-12.391-71.65c-2.801-16.189 1.664-32.686 12.246-45.254s26.072-19.777 42.502-19.777h98.756c2.209 0 4 1.791 4 4 0 20.561-18.064 40-37.172 40h-34.828v34.162c0 5.896-2.463 11.385-6.758 15.059-4.162 3.562-9.5 5.045-15.043 4.182-.799-.125-1.527-.293-2.199-.5v4.752c0 1.061-.422 2.078-1.172 2.828l-10.828 10.828v20.689c0 2.208-1.791 3.999-4 3.999zm-25.805-8h21.805v-18.346c0-1.061.422-2.078 1.172-2.828l10.828-10.828v-10.566c0-1.627.984-3.09 2.49-3.705 1.502-.615 3.234-.254 4.371.91 1.873 1.916 2.641 2.561 4.574 2.863 3.189.498 6.248-.336 8.605-2.357 2.516-2.152 3.959-5.426 3.959-8.98v-38.162c0-2.209 1.791-4 4-4h38.828c13.502 0 26.775-13.332 28.883-28h-94.466c-14.062 0-27.324 6.17-36.383 16.93s-12.879 24.879-10.482 38.738z" fill="#4c241d"/></g><g><path d="m163.161 143.712v-41.654h-50.746c-11.738 0-21.254 9.516-21.254 21.254v18.746h-11.142c-12.415 0-21.595 12.796-16.368 24.057 2.617 5.639 8.055 9.597 14.339 9.597h2.884l-17.713 24v62.346h64v-28h17.641c10.14 0 18.359-8.22 18.359-18.359v-29.641h11.179c3.597 0 6.003-3.703 4.542-6.99z" fill="#ffe8dc"/><path d="m127.161 266.058h-64c-2.209 0-4-1.791-4-4v-62.346c0-.855.273-1.688.781-2.375l13.439-18.209c-5.715-1.467-10.697-5.594-13.359-11.33-2.945-6.348-2.418-13.461 1.447-19.518 4.086-6.4 11.02-10.223 18.549-10.223h7.143v-14.746c0-13.926 11.328-25.254 25.254-25.254h50.746c2.209 0 4 1.791 4 4v40.805l15.375 34.58c1.238 2.787.986 5.977-.676 8.533-1.66 2.557-4.473 4.082-7.52 4.082h-7.18v25.641c0 12.328-10.031 22.359-22.359 22.359h-13.641v24c.001 2.21-1.79 4.001-3.999 4.001zm-60-8h56v-24c0-2.209 1.791-4 4-4h17.641c7.918 0 14.359-6.441 14.359-14.359v-29.641c0-2.209 1.791-4 4-4h11.18c.434 0 .682-.24.812-.441s.25-.525.074-.924l-15.721-35.355c-.229-.512-.346-1.064-.346-1.625v-37.654h-46.746c-9.514 0-17.254 7.74-17.254 17.254v18.746c0 2.209-1.791 4-4 4h-11.142c-4.783 0-9.197 2.439-11.807 6.527-2.365 3.707-2.705 8.025-.932 11.846 2.084 4.492 6.188 7.281 10.709 7.281h2.885c1.51 0 2.891.85 3.57 2.197.682 1.348.545 2.963-.352 4.178l-16.932 22.941v57.029z" fill="#4c241d"/></g><g fill="#4c241d"><path d="m247.161 58.058c-2.209 0-4-1.791-4-4v-8c0-2.209 1.791-4 4-4s4 1.791 4 4v8c0 2.209-1.791 4-4 4z"/><path d="m247.161 82.058c-2.209 0-4-1.791-4-4v-8c0-2.209 1.791-4 4-4s4 1.791 4 4v8c0 2.209-1.791 4-4 4z"/><path d="m239.161 66.058h-8c-2.209 0-4-1.791-4-4s1.791-4 4-4h8c2.209 0 4 1.791 4 4s-1.791 4-4 4z"/><path d="m187.447 38.218c0 2.362-1.914 4.277-4.276 4.277s-4.276-1.915-4.276-4.277 1.914-4.276 4.276-4.276 4.276 1.915 4.276 4.276z"/><path d="m263.161 66.058h-8c-2.209 0-4-1.791-4-4s1.791-4 4-4h8c2.209 0 4 1.791 4 4s-1.791 4-4 4z"/><path d="m137.989 154.687c-3.523 0-7.047-1.258-10.4-3.775-1.768-1.326-2.125-3.832-.799-5.6 1.322-1.764 3.836-2.125 5.6-.799 3.926 2.945 7.273 2.945 11.199 0 1.771-1.326 4.277-.965 5.6.799 1.326 1.766.969 4.273-.799 5.6-3.352 2.515-6.877 3.775-10.401 3.775z"/><path d="m133.433 238.058h-11.26c-13.328 0-25.859-5.189-35.283-14.615l-6.557-6.557c-1.562-1.562-1.562-4.094 0-5.656s4.094-1.562 5.656 0l6.557 6.557c7.914 7.914 18.436 12.271 29.627 12.271h11.26c2.209 0 4 1.791 4 4s-1.792 4-4 4z"/></g><path d="m152.411 123.265c-3.543 0-7.062-1.363-9.703-4.004l-2.375-2.375c-1.562-1.562-1.562-4.094 0-5.656s4.094-1.562 5.656 0l2.375 2.375c1.912 1.912 4.938 2.213 7.195.713 4.617-3.078 10.586-3.078 15.203 0 2.258 1.506 5.281 1.205 7.195-.713l2.375-2.375c1.562-1.562 4.094-1.562 5.656 0s1.562 4.094 0 5.656l-2.375 2.375c-4.604 4.604-11.875 5.32-17.289 1.713-1.922-1.281-4.406-1.281-6.328 0-2.308 1.539-4.954 2.291-7.585 2.291z" fill="#f53e28"/><path d="m152.411 139.265c-3.543 0-7.062-1.363-9.703-4.004l-2.375-2.375c-1.562-1.562-1.562-4.094 0-5.656s4.094-1.562 5.656 0l2.375 2.375c1.912 1.912 4.938 2.213 7.195.713 4.617-3.078 10.586-3.078 15.203 0 2.258 1.504 5.281 1.205 7.195-.713l2.375-2.375c1.562-1.562 4.094-1.562 5.656 0s1.562 4.094 0 5.656l-2.375 2.375c-4.604 4.602-11.875 5.32-17.289 1.713-1.922-1.281-4.406-1.281-6.328 0-2.308 1.539-4.954 2.291-7.585 2.291z" fill="#f53e28"/><path d="m139.163 210.06c-1.543 0-3.014-.898-3.67-2.404-.881-2.025.045-4.383 2.07-5.266l2.959-1.289c6.43-2.801 14.379-3.713 21.826-2.502l1.453.234c2.182.355 3.662 2.41 3.309 4.59-.355 2.182-2.404 3.652-4.59 3.309l-1.455-.236c-5.963-.969-12.289-.264-17.348 1.941l-2.959 1.289c-.519.227-1.062.332-1.595.334z" fill="#4c241d"/><g><path d="m250.012 250.058h-37.702c-2.844 0-5.149-2.305-5.149-5.149v-10.851h48v10.851c0 2.844-2.305 5.149-5.149 5.149z" fill="#f53e28"/><path d="m250.013 254.058h-37.703c-5.045 0-9.148-4.104-9.148-9.148v-10.852c0-2.209 1.791-4 4-4h48c2.209 0 4 1.791 4 4v10.852c-.001 5.045-4.104 9.148-9.149 9.148zm-38.852-16v6.852c0 .633.516 1.148 1.148 1.148h37.703c.633 0 1.148-.516 1.148-1.148v-6.852z" fill="#4c241d"/></g><g><path d="m255.161 234.058h-48v-78.851c0-2.844 2.305-5.149 5.149-5.149h37.702c2.844 0 5.149 2.305 5.149 5.149z" fill="#fff"/><path d="m255.161 238.058h-48c-2.209 0-4-1.791-4-4v-78.852c0-5.045 4.104-9.148 9.148-9.148h37.703c5.045 0 9.148 4.104 9.148 9.148v78.852c.001 2.209-1.79 4-3.999 4zm-44-8h40v-74.852c0-.633-.516-1.148-1.148-1.148h-37.703c-.633 0-1.148.516-1.148 1.148v74.852z" fill="#4c241d"/></g><g><path d="m219.161 138.058h24v12h-24z" fill="#fff"/><path d="m243.161 154.058h-24c-2.209 0-4-1.791-4-4v-12c0-2.209 1.791-4 4-4h24c2.209 0 4 1.791 4 4v12c0 2.209-1.791 4-4 4zm-20-8h16v-4h-16z" fill="#4c241d"/></g><path d="m231.161 218.06c-.418 0-.846-.066-1.266-.207-2.096-.699-3.229-2.965-2.529-5.061l6.246-18.734h-10.451c-1.328 0-2.568-.658-3.312-1.758s-.895-2.496-.402-3.729l8-20c.818-2.051 3.141-3.043 5.201-2.229 2.051.822 3.049 3.148 2.229 5.201l-5.807 14.514h10.092c1.285 0 2.492.617 3.244 1.662.752 1.043.957 2.383.551 3.604l-8 24c-.56 1.677-2.12 2.737-3.796 2.737z" fill="#4c241d"/></g></svg>