<svg id="Layer_3" enable-background="new 0 0 64 64" height="512" viewBox="0 0 64 64" width="512" xmlns="http://www.w3.org/2000/svg"><g><g><path d="m25 38-8.765 2.697c-2.517.774-4.235 3.1-4.235 5.734v15.569h40v-15.569c0-2.634-1.718-4.96-4.235-5.735l-8.765-2.696" fill="#669e4f"/></g><g><path d="m21 58c13.255 0 24-7.611 24-17 0-.395-.026-.785-.063-1.173l-5.937-1.827h-14l-8.765 2.697c-2.517.774-4.235 3.1-4.235 5.734v10.329c2.78.797 5.816 1.24 9 1.24z" fill="#78b75b"/></g><g><path d="m12 55h7v7h-7z" fill="#efbe9a"/></g><g><path d="m45 55h7v7h-7z" fill="#efbe9a"/></g><g><path d="m17 22v-9.757c0-5.657 4.586-10.243 10.243-10.243h7.515c2.716 0 5.321 1.079 7.242 3 2.761 0 5 2.239 5 5v12" fill="#976947"/></g><g><path d="m19 21c2.209 0 4-1.791 4-4v-1.93c0-1.696 1.375-3.07 3.07-3.07.606 0 1.199.179 1.703.516l.562.375c1.086.723 2.361 1.109 3.665 1.109 1.304 0 2.579-.386 3.664-1.109l.562-.375c.505-.337 1.097-.516 1.704-.516 1.696 0 3.07 1.375 3.07 3.07v1.93c0 2.209 1.791 4 4 4v6c0 7.18-5.82 13-13 13-7.18 0-13-5.82-13-13z" fill="#efbe9a"/></g><g><path d="m19 21c-2.209 0-4 1.791-4 4 0 2.209 1.791 4 4 4" fill="#db9b7c"/></g><g><path d="m45 21c2.209 0 4 1.791 4 4 0 2.209-1.791 4-4 4" fill="#db9b7c"/></g><g><path d="m39 38v3c0 3.866-3.134 7-7 7-3.866 0-7-3.134-7-7v-3" fill="#efbe9a"/></g><g><path d="m18 50h2v12h-2z"/></g><g><path d="m44 50h2v12h-2z"/></g><g><path d="m52 63h-40c-.553 0-1-.447-1-1v-15.568c0-3.092 1.985-5.781 4.941-6.691l8.765-2.696.588 1.912-8.765 2.696c-2.11.649-3.529 2.57-3.529 4.779v14.568h38v-14.568c0-2.209-1.419-4.13-3.529-4.779l-8.765-2.696.588-1.912 8.765 2.696c2.956.909 4.941 3.599 4.941 6.691v15.568c0 .553-.447 1-1 1z"/></g><g><path d="m32 41c-7.72 0-14-6.28-14-14v-6c0-.553.447-1 1-1 1.654 0 3-1.346 3-3v-1.93c0-2.244 1.826-4.07 4.07-4.07.807 0 1.587.236 2.258.684l.562.375c1.848 1.232 4.371 1.232 6.219 0l.562-.375c.672-.448 1.452-.684 2.259-.684 2.244 0 4.07 1.826 4.07 4.07v1.93c0 1.654 1.346 3 3 3 .553 0 1 .447 1 1v6c0 7.72-6.28 14-14 14zm-12-19.101v5.101c0 6.617 5.383 12 12 12s12-5.383 12-12v-5.101c-2.279-.465-4-2.484-4-4.899v-1.93c0-1.142-.929-2.07-2.07-2.07-.41 0-.808.12-1.148.348l-.562.375c-2.506 1.672-5.932 1.672-8.438 0l-.562-.375c-.342-.228-.74-.348-1.15-.348-1.141 0-2.07.929-2.07 2.07v1.93c0 2.415-1.721 4.435-4 4.899z"/></g><g><path d="m48 22h-2v-12c0-2.206-1.794-4-4-4-.266 0-.52-.105-.707-.293-1.746-1.746-4.066-2.707-6.535-2.707h-7.516c-5.096 0-9.242 4.146-9.242 9.242v9.758h-2v-9.758c0-6.199 5.043-11.242 11.242-11.242h7.516c2.869 0 5.573 1.067 7.661 3.015 3.113.215 5.581 2.817 5.581 5.985z"/></g><g><path d="m19 30c-2.757 0-5-2.243-5-5s2.243-5 5-5v2c-1.654 0-3 1.346-3 3s1.346 3 3 3z"/></g><g><path d="m45 30v-2c1.654 0 3-1.346 3-3s-1.346-3-3-3v-2c2.757 0 5 2.243 5 5s-2.243 5-5 5z"/></g><g><path d="m32 49c-4.411 0-8-3.589-8-8v-3h2v3c0 3.309 2.691 6 6 6s6-2.691 6-6v-3h2v3c0 4.411-3.589 8-8 8z"/></g><g><path d="m45 54h7v2h-7z"/></g><g><path d="m12 54h7v2h-7z"/></g><g><path d="m32 24c-11.775 0-21-4.173-21-9.5 0-2.732 2.35-5.216 6.615-6.993l.77 1.846c-3.422 1.425-5.385 3.301-5.385 5.147 0 3.622 7.635 7.5 19 7.5s19-3.878 19-7.5c0-1.668-1.574-3.345-4.434-4.721l.867-1.803c3.59 1.729 5.567 4.045 5.567 6.524 0 5.327-9.225 9.5-21 9.5z"/></g><g><path d="m57 3h6v2h-6z"/></g><g><path d="m59 1h2v6h-2z"/></g><g><path d="m55 13h6v2h-6z"/></g><g><path d="m57 11h2v6h-2z"/></g><g><path d="m49 3h6v2h-6z"/></g><g><path d="m51 1h2v6h-2z"/></g><g><path d="m1 3h6v2h-6z"/></g><g><path d="m3 1h2v6h-2z"/></g><g><path d="m3 13h6v2h-6z"/></g><g><path d="m5 11h2v6h-2z"/></g><g><path d="m9 3h6v2h-6z"/></g><g><path d="m11 1h2v6h-2z"/></g></g></svg>