<svg id="Capa_1" enable-background="new 0 0 512 512" height="512" viewBox="0 0 512 512" width="512" xmlns="http://www.w3.org/2000/svg"><g><g><g><path d="m191.256 169.456s-29.184-39.317-28.36-95.397c0 0 16.5 3.927 31.063 0 28.544-7.697 56.629-64.326 106.111-65.976s59.077 21.442 59.077 21.442 18.203-10.82 45.384-7.147c40.685 5.498 76.422 67.48 40.1 152.627" fill="#565e75"/><path d="m399.534 135.727c-17.663-16.295-37.326-44.484-45.224-56.257-1.814-2.703-5.661-2.955-7.86-.554-39.844 43.518-91.456 58.02-114.551 62.531-7.036 1.375-12.1 7.547-12.1 14.716v46.586c0 52.244 42.352 94.596 94.596 94.596 52.244 0 94.596-42.352 94.596-94.596v-45.16c.001-8.28-3.37-16.248-9.457-21.862z" fill="#fdd4bb"/><path d="m314.396 279.346c-52.244 0-94.596-42.352-94.596-94.596v18c0 52.244 42.352 94.596 94.596 94.596 52.244 0 94.596-42.352 94.596-94.596v-18c0 52.243-42.352 94.596-94.596 94.596z" fill="#f7c4a8"/><path d="m219.8 202.75v-33.408c-4.205-2.312-9.035-3.631-14.173-3.631-16.27 0-29.46 13.19-29.46 29.46s13.19 29.46 29.46 29.46c5.798 0 11.2-1.682 15.758-4.574-1.038-5.611-1.585-11.395-1.585-17.307z" fill="#ebbaa1"/><path d="m408.992 202.75v-33.408c4.205-2.312 9.034-3.631 14.173-3.631 16.27 0 29.46 13.19 29.46 29.46s-13.19 29.46-29.46 29.46c-5.798 0-11.2-1.682-15.758-4.574 1.037-5.611 1.585-11.395 1.585-17.307z" fill="#ebbaa1"/><path d="m205.627 206.631c-13.131 0-24.25-8.592-28.054-20.46-.91 2.838-1.406 5.86-1.406 9 0 16.27 13.19 29.46 29.46 29.46 5.798 0 11.2-1.682 15.758-4.574-1.024-5.537-1.565-11.242-1.58-17.072-4.207 2.318-9.035 3.646-14.178 3.646z" fill="#e8a990"/><path d="m423.165 206.631c-5.143 0-9.971-1.328-14.178-3.646-.014 5.83-.556 11.535-1.58 17.072 4.558 2.892 9.96 4.574 15.758 4.574 16.27 0 29.46-13.19 29.46-29.46 0-3.14-.496-6.162-1.405-9-3.805 11.868-14.925 20.46-28.055 20.46z" fill="#e8a990"/><path d="m158.314 504v-79.888c0-67.805 47.943-124.406 111.777-137.77 13.218 7.02 28.295 11.003 44.304 11.003 16.009 0 31.086-3.983 44.304-11.003 63.834 13.363 111.777 69.965 111.777 137.77v79.888z" fill="#976eca"/><path d="m158.314 486h312.163v18h-312.163z" fill="#8665c6"/><path d="m314.396 297.346c-16.129 0-31.313-4.041-44.601-11.159-.091 1.163-.151 2.334-.151 3.521 0 24.716 20.036 44.751 44.751 44.751 24.716 0 44.751-20.036 44.751-44.751 0-1.186-.06-2.358-.151-3.521-13.287 7.118-28.47 11.159-44.599 11.159z" fill="#ebbaa1"/><path d="m398.758 458.367h71.719v45.633h-71.719z" fill="#fdd4bb"/><path d="m398.758 486h71.719v18h-71.719z" fill="#f7c4a8"/></g><path d="m212.705 372.135h-141.182c-16.569 0-30 13.431-30 30v71.865c0 16.568 13.431 30 30 30h154.253c16.568 0 30-13.432 30-30v-128.525c0-4.296-5.059-6.592-8.292-3.763z" fill="#ffde91"/><path d="m225.776 486h-154.253c-16.569 0-30-13.432-30-30v18c0 16.568 13.431 30 30 30h154.253c16.568 0 30-13.432 30-30v-18c0 16.568-13.432 30-30 30z" fill="#ffce6e"/></g><g><path d="m452.003 339.867c-2.367-3.413-7.053-4.26-10.468-1.893-3.413 2.367-4.261 7.053-1.893 10.467 15.522 22.377 23.726 48.656 23.726 75.996v26.799h-56.814v-35.445c0-4.155-3.368-7.522-7.522-7.522s-7.522 3.367-7.522 7.522v81.166h-135.741c4.724-6.283 7.527-14.088 7.527-22.536v-128.773c0-4.98-2.817-9.352-7.352-11.411-4.536-2.058-9.682-1.301-13.43 1.978l-32.72 28.621h-30.134c16.749-33.637 46.735-58.565 82.875-68.815 3.1 25.934 25.218 46.11 51.974 46.11 26.755 0 48.871-20.175 51.973-46.108 19.672 5.606 37.901 15.729 53.164 29.606 1.441 1.31 3.253 1.957 5.058 1.957 2.045 0 4.083-.829 5.567-2.462 2.795-3.073 2.568-7.83-.505-10.624-15.306-13.916-33.302-24.427-52.737-30.939 17.07-13.22 29.864-31.707 35.911-53.007 3.403 1.012 6.951 1.539 10.548 1.539 20.423 0 37.038-16.615 37.038-37.038 0-7.992-2.553-15.394-6.874-21.452 18.549-46.046 18.634-90.842.093-123.48-11.408-20.08-28.874-33.074-47.92-35.648-20.014-2.703-35.654 1.786-43.9 5.106-2.14-2.489-5.205-5.384-9.491-8.163-12.729-8.255-30.401-12.066-52.53-11.328-18.295.61-35.482 7.802-54.09 22.632-3.248 2.59-3.783 7.322-1.193 10.571 2.589 3.249 7.322 3.782 10.57 1.194 15.949-12.713 30.317-18.865 45.215-19.361 41.444-1.393 51.352 15.674 52.027 16.94.769 2.051 2.354 3.497 4.42 4.25 2.094.76 4.374.38 6.304-.741.164-.094 16.597-9.442 40.653-6.192 14.353 1.939 27.785 12.207 36.854 28.17 7.533 13.26 22.001 49.189 1.04 105.273-5.384-3.055-11.598-4.809-18.218-4.809-2.245 0-4.481.213-6.679.616v-1.232c0-10.46-4.336-20.459-11.897-27.434-17.17-15.839-36.606-43.758-44.165-55.025-2.152-3.207-5.593-5.213-9.441-5.504-3.873-.289-7.599 1.187-10.229 4.06-38.978 42.572-90.377 56.386-110.666 60.349-10.548 2.061-18.203 11.367-18.203 22.127v2.661c-2.198-.403-4.433-.616-6.678-.616-4.043 0-7.933.66-11.578 1.863-6.77-11.059-21.973-39.829-23.591-77.369 6.809.694 16.368.907 25.437-1.539 13.155-3.547 25.002-14.846 37.544-26.81 3.006-2.867 3.119-7.627.252-10.634-2.867-3.006-7.628-3.118-10.634-.251-10.629 10.137-21.619 20.619-31.078 23.17-12.496 3.369-27.289-.024-27.424-.055-2.219-.526-4.559-.021-6.36 1.381-1.801 1.401-2.869 3.543-2.902 5.825-.669 45.489 17.283 80.139 25.697 93.831-7.603 6.788-12.401 16.654-12.401 27.624 0 20.423 16.615 37.038 37.038 37.038 3.597 0 7.144-.527 10.548-1.539 6.045 21.291 18.83 39.772 35.889 52.99-39.652 13.217-71.962 42.558-88.915 81.293h-91.882c-20.721 0-37.579 16.858-37.579 37.58v72.003c0 20.722 16.858 37.58 37.579 37.58h40.329c4.154 0 7.522-3.367 7.522-7.522s-3.368-7.522-7.522-7.522h-40.329c-12.426 0-22.536-10.11-22.536-22.536v-72.003c0-12.426 10.11-22.537 22.536-22.537h141.453c1.822 0 3.581-.661 4.952-1.86l30.681-26.838v123.238c0 12.426-10.11 22.536-22.536 22.536h-67.591-16.572c-4.154 0-7.522 3.367-7.522 7.522s3.368 7.522 7.522 7.522h16.572 67.591 245.172c4.154 0 7.522-3.367 7.522-7.522v-80.042c0-30.419-9.132-59.662-26.409-84.569zm-137.495-12.778c-17.65 0-32.467-12.321-36.327-28.812 11.295 4.305 23.539 6.671 36.327 6.671s25.032-2.366 36.327-6.67c-3.86 16.49-18.677 28.811-36.327 28.811zm108.979-154.029c12.128 0 21.995 9.867 21.995 21.995s-9.867 21.995-21.995 21.995c-2.58 0-5.118-.454-7.512-1.325.549-4.283.833-8.647.833-13.077v-28.548c2.149-.683 4.406-1.04 6.679-1.04zm-217.957 43.99c-12.128 0-21.995-9.867-21.995-21.995s9.867-21.995 21.995-21.995c2.273 0 4.529.357 6.678 1.04v28.548c0 4.43.284 8.794.833 13.077-2.393.871-4.931 1.325-7.511 1.325zm21.721-14.402v-46.676c0-3.582 2.542-6.678 6.044-7.362 21.384-4.177 75.025-18.587 116.737-62.656 8.835 12.991 27.585 39.3 44.679 55.07 4.483 4.135 7.054 10.104 7.054 16.377v45.247c0 48.113-39.143 87.256-87.256 87.256s-87.258-39.143-87.258-87.256zm236.118 294.309h-56.814v-30.678h56.814z"/><path d="m293.127 250.573c4.154 0 7.522-3.367 7.522-7.522 0-7.702 6.266-13.968 13.968-13.968s13.968 6.266 13.968 13.968c0 4.155 3.368 7.522 7.522 7.522s7.522-3.367 7.522-7.522c0-15.997-13.014-29.011-29.012-29.011-15.997 0-29.012 13.014-29.012 29.011.001 4.155 3.368 7.522 7.522 7.522z"/><path d="m259.06 189.925c.505-.062 12.509-1.549 23.077-6.145 3.809-1.657 5.555-6.088 3.898-9.898-1.657-3.809-6.088-5.555-9.898-3.898-8.509 3.701-18.786 4.993-18.888 5.006-4.12.502-7.056 4.247-6.558 8.369.461 3.818 3.706 6.621 7.458 6.621.3 0 .605-.019.911-.055z"/><path d="m346.88 183.78c10.568 4.595 22.57 6.083 23.076 6.145.307.036.61.055.911.055 3.748 0 6.989-2.799 7.454-6.614.501-4.12-2.433-7.869-6.554-8.376-.103-.013-10.378-1.304-18.888-5.006-3.81-1.657-8.241.089-9.898 3.898-1.656 3.811.089 8.241 3.899 9.898z"/><path d="m99.618 326.983c27.349 0 49.599-22.25 49.599-49.599s-22.25-49.599-49.599-49.599-49.599 22.25-49.599 49.599c0 27.35 22.25 49.599 49.599 49.599zm0-15.043c-6.809 0-13.159-1.988-18.516-5.402l47.669-47.669c3.414 5.357 5.402 11.706 5.402 18.516 0 19.053-15.501 34.555-34.555 34.555zm0-69.111c6.809 0 13.16 1.988 18.516 5.402l-47.67 47.67c-3.414-5.357-5.402-11.707-5.402-18.516 0-19.054 15.502-34.556 34.556-34.556z"/><path d="m141.504 427.81c8.04-10.453 12.445-21.939 12.628-22.423 1.472-3.88-.479-8.215-4.357-9.692-3.877-1.481-8.221.471-9.704 4.348-.038.098-3.846 9.957-10.49 18.594-.894 1.163-1.902 2.428-2.976 3.776-9.234 11.59-23.187 29.104-16.15 44.245 4.68 10.069 15.677 12.503 25.222 12.503 7.883 0 14.775-1.662 16.29-2.054 4.022-1.041 6.438-5.145 5.397-9.166-1.041-4.022-5.147-6.437-9.166-5.397-6.957 1.799-21.651 3.047-24.102-2.226-3.115-6.703 8.197-20.902 14.274-28.529 1.13-1.422 2.191-2.755 3.134-3.979z"/><path d="m170.642 465.574c.876.331 1.774.488 2.657.488 3.039 0 5.9-1.855 7.038-4.866 2.967-7.854 1.506-13.666-.242-17.16-3.553-7.1-10.637-9.787-12.437-10.37-4.652-2.405-11.088 1.291-10.874 6.825 0 3.729 2.686 6.847 6.231 7.483.703.229 2.881 1.242 3.65 2.842.562 1.17.426 2.874-.401 5.064-1.468 3.886.492 8.226 4.378 9.694z"/></g></g></svg>