<svg id="Layer_1" enable-background="new 0 0 512 512" height="512" viewBox="0 0 512 512" width="512" xmlns="http://www.w3.org/2000/svg"><g><g><path d="m403.001 478h-363c-8.284 0-15-6.716-15-15l-.002-448c0-3.978 1.58-7.793 4.394-10.606 2.812-2.813 6.628-4.394 10.606-4.394h363.002c8.284 0 15 6.716 15 15v448c0 8.284-6.716 15-15 15zm-348-15h.01z" fill="#f9f9f9"/></g><path d="m403.001 0h-181.501v478h181.501c8.284 0 15-6.716 15-15v-448c0-8.284-6.716-15-15-15z" fill="#e2dff4"/><path d="m463.001 271.996h-119.999c-8.284 0-15 6.716-15 15v150.004c0 41.355 33.645 75 75 75 41.354 0 74.999-33.645 74.999-75v-150.004c0-8.284-6.716-15-15-15z" fill="#f9f9f9"/><path d="m463.001 271.996h-60v240.004c41.354 0 74.999-33.645 74.999-75v-150.004c.001-8.284-6.715-15-14.999-15z" fill="#e2dff4"/><g><path d="m403.002 437c-8.284 0-15-6.716-15-15v-129.035c0-8.284 6.716-15 15-15s15 6.716 15 15v129.035c0 8.284-6.716 15-15 15z" fill="#bceaf9"/></g><path d="m282.999 116.317c-7.267 0-13.327 5.168-14.706 12.029-1.231-7.061-4.027-13.592-8.017-19.22 2.523 1.701 5.448 2.552 8.374 2.552 3.838 0 7.677-1.464 10.605-4.393 5.858-5.857 5.859-15.355.002-21.213l-7.328-7.329c-5.858-5.858-15.354-5.858-21.213-.001-5.167 5.166-5.777 13.165-1.83 19-5.651-4.002-12.211-6.8-19.303-8.021 6.896-1.352 12.098-7.428 12.098-14.719 0-8.284-6.716-15-15-15h-10.364c-8.284 0-15 6.716-15 15 0 7.292 5.203 13.368 12.099 14.719-7.092 1.221-13.651 4.019-19.302 8.021 3.947-5.835 3.337-13.832-1.83-18.998-5.857-5.858-15.355-5.858-21.213 0l-7.329 7.329c-5.858 5.858-5.858 15.355 0 21.213 2.929 2.929 6.768 4.394 10.606 4.394 2.926 0 5.851-.851 8.374-2.552-3.989 5.628-6.785 12.157-8.016 19.218-1.38-6.86-7.439-12.026-14.705-12.026-8.284 0-15 6.716-15 15v10.364c0 8.284 6.716 15 15 15 7.256 0 13.308-5.152 14.699-11.997 1.22 7.024 3.989 13.524 7.94 19.134-5.826-3.873-13.762-3.24-18.899 1.897-5.857 5.858-5.856 15.356.002 21.213l7.329 7.328c2.929 2.929 6.767 4.393 10.605 4.393s7.679-1.465 10.607-4.394c5.131-5.132 5.766-13.055 1.908-18.879 5.589 3.94 12.061 6.706 19.056 7.936-6.812 1.416-11.932 7.453-11.932 14.686 0 8.284 6.716 15 15 15h10.364c8.284 0 15-6.716 15-15 0-7.232-5.119-13.269-11.931-14.686 6.995-1.23 13.468-3.996 19.056-7.936-3.859 5.825-3.222 13.749 1.909 18.88 2.93 2.929 6.768 4.393 10.606 4.393s7.678-1.465 10.606-4.394l7.329-7.329c5.857-5.858 5.856-15.355-.001-21.213-5.138-5.136-13.073-5.768-18.898-1.896 3.952-5.611 6.72-12.111 7.94-19.137 1.39 6.847 7.443 12 14.7 12 8.284 0 15-6.716 15-15v-10.364c.003-8.286-6.713-15.002-14.997-15.002z" fill="#00dd7b"/><g><circle clip-rule="evenodd" cx="100.002" cy="278" fill="#7dd5f4" fill-rule="evenodd" r="15"/></g><g><path d="m261.002 293h-101.001c-8.284 0-15-6.716-15-15s6.716-15 15-15h101.001c8.284 0 15 6.716 15 15s-6.716 15-15 15z" fill="#7dd5f4"/></g><g><circle clip-rule="evenodd" cx="100.002" cy="358" fill="#7dd5f4" fill-rule="evenodd" r="15"/></g><g><path d="m261.002 373h-101.001c-8.284 0-15-6.716-15-15s6.716-15 15-15h101.001c8.284 0 15 6.716 15 15s-6.716 15-15 15z" fill="#7dd5f4"/></g><path d="m472.001 212h-137.999c-8.284 0-15 6.716-15 15v60c0 8.284 6.716 15 15 15h137.999c8.284 0 15-6.716 15-15v-60c0-8.284-6.716-15-15-15z" fill="#ff4d4d"/><path d="m282.999 116.317c-7.267 0-13.327 5.168-14.706 12.029-1.231-7.061-4.027-13.592-8.017-19.22 2.523 1.701 5.448 2.552 8.374 2.552 3.838 0 7.677-1.464 10.605-4.393 5.858-5.857 5.859-15.355.002-21.213l-7.328-7.329c-5.858-5.858-15.354-5.858-21.213-.001-5.167 5.166-5.777 13.165-1.83 19-5.651-4.002-12.211-6.8-19.303-8.021 6.896-1.352 12.098-7.428 12.098-14.719 0-8.284-6.716-15-15-15h-5.181v152.999h5.182c8.284 0 15-6.716 15-15 0-7.232-5.119-13.269-11.931-14.686 6.995-1.23 13.468-3.996 19.056-7.936-3.859 5.825-3.222 13.749 1.909 18.88 2.93 2.929 6.768 4.393 10.606 4.393s7.678-1.465 10.606-4.394l7.329-7.329c5.857-5.858 5.856-15.355-.001-21.213-5.138-5.136-13.073-5.768-18.898-1.896 3.952-5.611 6.72-12.111 7.94-19.137 1.39 6.847 7.443 12 14.7 12 8.284 0 15-6.716 15-15v-10.364c.001-8.286-6.715-15.002-14.999-15.002z" fill="#24b383"/><path d="m261.002 263h-39.502v30h39.502c8.284 0 15-6.716 15-15s-6.716-15-15-15z" fill="#4793ff"/><path d="m261.002 343h-39.502v30h39.502c8.284 0 15-6.716 15-15s-6.716-15-15-15z" fill="#4793ff"/><path d="m403.002 277.965v159.035c8.284 0 15-6.716 15-15v-129.035c0-8.284-6.716-15-15-15z" fill="#9ddff6"/><path d="m472.001 212h-69v90h69c8.284 0 15-6.716 15-15v-60c0-8.284-6.716-15-15-15z" fill="#cc295f"/></g></svg>